<svg width="1176" height="1044" viewBox="0 0 1176 1044" preserveAspectRatio="none" fill="none" xmlns="http://www.w3.org/2000/svg">
<path d="M0 148C0 143.582 3.58172 140 8 140H1168C1172.42 140 1176 143.582 1176 148V1044H0V148Z" fill="white"/>
<mask id="mask0_14520_10395" style="mask-type:alpha" maskUnits="userSpaceOnUse" x="0" y="140" width="1176" height="904">
<path d="M0 148C0 143.582 3.58172 140 8 140H1168C1172.42 140 1176 143.582 1176 148V1044H0V148Z" fill="white"/>
</mask>
<g mask="url(#mask0_14520_10395)">
<path d="M600 160C84 160 0 244 0 244V140H1176V244C1176 244 1116 160 600 160Z" fill="#DF6262"/>
</g>
<path d="M588.54 49.5342C590.351 49.5342 592.419 50.5039 594.707 52.4453C596.978 54.3723 599.351 57.1589 601.756 60.5596C606.562 67.3574 611.39 76.4549 615.698 85.5957C620.003 94.7277 623.771 103.865 626.464 110.722C627.81 114.149 628.888 117.005 629.628 119.003C629.998 120.002 630.283 120.787 630.477 121.321C630.573 121.588 630.646 121.793 630.695 121.931C630.72 121.999 630.739 122.051 630.751 122.086C630.757 122.103 630.762 122.116 630.765 122.125C630.766 122.129 630.767 122.133 630.768 122.135L630.769 122.137C630.769 122.137 630.769 122.138 631.712 121.805L630.77 122.138L631.177 123.291L632.226 122.662L632.228 122.661C632.229 122.66 632.23 122.659 632.232 122.658C632.237 122.655 632.245 122.651 632.255 122.645C632.275 122.633 632.305 122.615 632.346 122.591C632.426 122.543 632.548 122.472 632.706 122.379C633.023 122.193 633.49 121.921 634.09 121.578C635.29 120.892 637.019 119.919 639.136 118.779C643.371 116.498 649.147 113.548 655.32 110.869C661.502 108.187 668.042 105.793 673.814 104.601C676.699 104.005 679.359 103.717 681.667 103.829C683.979 103.942 685.874 104.453 687.292 105.396C687.87 105.781 688.37 106.451 688.75 107.49C689.131 108.532 689.368 109.884 689.453 111.536C689.624 114.841 689.185 119.164 688.279 124.187C686.471 134.219 682.846 146.828 678.803 159.207C674.763 171.577 670.317 183.683 666.881 192.698C665.163 197.205 663.698 200.938 662.662 203.544C662.144 204.847 661.734 205.869 661.453 206.563C661.386 206.729 661.326 206.877 661.274 207.005H515.778C515.717 206.869 515.645 206.709 515.563 206.527C515.251 205.832 514.794 204.812 514.218 203.509C513.064 200.903 511.429 197.169 509.509 192.662C505.667 183.647 500.682 171.541 496.103 159.17C491.519 146.79 487.356 134.181 485.145 124.148C484.037 119.125 483.432 114.803 483.488 111.501C483.517 109.85 483.71 108.502 484.06 107.467C484.365 106.564 484.772 105.947 485.251 105.553L485.46 105.396C486.864 104.462 488.883 103.943 491.45 103.829C494.004 103.716 497.01 104.007 500.308 104.605C506.902 105.802 514.531 108.204 521.795 110.89C529.052 113.573 535.91 116.526 540.957 118.81C543.48 119.951 545.548 120.925 546.984 121.612C547.703 121.956 548.263 122.228 548.644 122.414C548.834 122.507 548.979 122.579 549.076 122.627L549.213 122.695C549.216 122.697 549.218 122.698 549.22 122.698L549.222 122.699L550.29 123.232L550.628 122.087C550.628 122.086 550.628 122.085 550.628 122.084C550.629 122.082 550.63 122.078 550.631 122.074C550.633 122.066 550.638 122.053 550.643 122.036C550.653 122.001 550.669 121.949 550.689 121.88C550.73 121.742 550.791 121.538 550.872 121.271C551.034 120.737 551.274 119.953 551.585 118.954C552.208 116.956 553.117 114.1 554.262 110.673C556.552 103.817 559.784 94.6811 563.552 85.5508C567.323 76.4109 571.615 67.3183 576.019 60.5264C578.222 57.1283 580.427 54.3487 582.577 52.4287C584.74 50.4969 586.737 49.5342 588.54 49.5342Z" fill="#DF6262" stroke="white" stroke-width="2"/>
<circle cx="696.278" cy="72.8021" r="18.6449" fill="#DF6262" stroke="white" stroke-width="2"/>
<path d="M706.677 68.1792C704.293 61.2458 698.223 60.4004 697.433 61.2457C695.909 62.8765 700.899 63.5567 703.211 68.179C705.523 72.8013 704.364 77.4239 705.519 77.4239C706.675 77.4239 709.062 75.1126 706.677 68.1792Z" fill="white"/>
<circle cx="589.957" cy="19.6449" r="18.6449" fill="#DF6262" stroke="white" stroke-width="2"/>
<path d="M600.357 15.023C597.973 8.08955 591.902 7.24417 591.112 8.08943C589.588 9.72021 594.578 10.4004 596.89 15.0228C599.203 19.6451 598.043 24.2676 599.199 24.2676C600.355 24.2676 602.742 21.9564 600.357 15.023Z" fill="white"/>
<circle cx="483.645" cy="75.1127" r="18.6449" fill="#DF6262" stroke="white" stroke-width="2"/>
<path d="M494.045 70.4917C491.66 63.5583 485.59 62.7129 484.8 63.5582C483.276 65.189 488.266 65.8692 490.578 70.4915C492.89 75.1138 491.731 79.7364 492.886 79.7364C494.042 79.7364 496.429 77.4251 494.045 70.4917Z" fill="white"/>
</svg>
